<svg xmlns="http://www.w3.org/2000/svg" viewBox="0 0 31 31" height="31" width="31"><title>airfield-11.svg</title><rect fill="none" x="0" y="0" width="31" height="31"></rect><rect x="2" y="2" rx="14.5" ry="14.5" width="27" height="27" stroke="#587ec1" style="stroke-linejoin:round;stroke-miterlimit:4;" fill="#587ec1" stroke-width="2"></rect><rect x="2" y="2" width="27" height="27" rx="14.5" ry="14.5" fill="#ffffff"></rect><path fill="rgba(222,222,222,0.66)" transform="translate(10 10)" d="M5,0.5H3.5C3,0.5,3,0,3.5,0h4
	C8,0,8,0.5,7.5,0.5H6C6,0.5,6.5,1,6.5,2v1H11v1.5l-4.5,2L6,10l1.5,0.5V11h-4v-0.5L5,10L4.5,6.5L0,4.5V3h4.5V2C4.5,1,5,0.5,5,0.5z" style="stroke-linejoin:round;stroke-miterlimit:4;" stroke="rgba(222,222,222,0.66)" stroke-width="2"></path><path fill="#587ec1" transform="translate(10 10)" d="M5,0.5H3.5C3,0.5,3,0,3.5,0h4
	C8,0,8,0.5,7.5,0.5H6C6,0.5,6.5,1,6.5,2v1H11v1.5l-4.5,2L6,10l1.5,0.5V11h-4v-0.5L5,10L4.5,6.5L0,4.5V3h4.5V2C4.5,1,5,0.5,5,0.5z"></path></svg>