<svg xmlns="http://www.w3.org/2000/svg" viewBox="0 0 31 31" height="31" width="31"><title>airport-11.svg</title><rect fill="none" x="0" y="0" width="31" height="31"></rect><rect x="2" y="2" rx="14.5" ry="14.5" width="27" height="27" stroke="#587ec1" style="stroke-linejoin:round;stroke-miterlimit:4;" fill="#587ec1" stroke-width="2"></rect><rect x="2" y="2" width="27" height="27" rx="14.5" ry="14.5" fill="#ffffff"></rect><path fill="rgba(222,222,222,0.66)" transform="translate(10 10)" d="M6.5,6.4V6L11,6.5V5L6.5,3.2V1.5c0-1-0.5-1.5-1-1.5s-1,0.5-1,1.5v1.7L0,5v1.4L4.5,6v0.4v1.1v1.8L3,10v1l2.5-0.5L8,11v-1
	L6.5,9.2V7.5V6.4z" style="stroke-linejoin:round;stroke-miterlimit:4;" stroke="rgba(222,222,222,0.66)" stroke-width="2"></path><path fill="#587ec1" transform="translate(10 10)" d="M6.5,6.4V6L11,6.5V5L6.5,3.2V1.5c0-1-0.5-1.5-1-1.5s-1,0.5-1,1.5v1.7L0,5v1.4L4.5,6v0.4v1.1v1.8L3,10v1l2.5-0.5L8,11v-1
	L6.5,9.2V7.5V6.4z"></path></svg>