<svg xmlns="http://www.w3.org/2000/svg" viewBox="0 0 35 35" height="35" width="35"><title>airport-15.svg</title><rect fill="none" x="0" y="0" width="35" height="35"></rect><rect x="2" y="2" rx="16.5" ry="16.5" width="31" height="31" stroke="#587ec1" style="stroke-linejoin:round;stroke-miterlimit:4;" fill="#587ec1" stroke-width="2"></rect><rect x="2" y="2" width="31" height="31" rx="16.5" ry="16.5" fill="#ffffff"></rect><path fill="rgba(222,222,222,0.66)" transform="translate(10 10)" d="M15,6.8182L15,8.5l-6.5-1
	l-0.3182,4.7727L11,14v1l-3.5-0.6818L4,15v-1l2.8182-1.7273L6.5,7.5L0,8.5V6.8182L6.5,4.5v-3c0,0,0-1.5,1-1.5s1,1.5,1,1.5v2.8182
	L15,6.8182z" style="stroke-linejoin:round;stroke-miterlimit:4;" stroke="rgba(222,222,222,0.66)" stroke-width="2"></path><path fill="#587ec1" transform="translate(10 10)" d="M15,6.8182L15,8.5l-6.5-1
	l-0.3182,4.7727L11,14v1l-3.5-0.6818L4,15v-1l2.8182-1.7273L6.5,7.5L0,8.5V6.8182L6.5,4.5v-3c0,0,0-1.5,1-1.5s1,1.5,1,1.5v2.8182
	L15,6.8182z"></path></svg>