<svg xmlns="http://www.w3.org/2000/svg" viewBox="0 0 31 31" height="31" width="31"><title>america-football-11.svg</title><rect fill="none" x="0" y="0" width="31" height="31"></rect><rect x="2" y="2" rx="14.5" ry="14.5" width="27" height="27" stroke="#587ec1" style="stroke-linejoin:round;stroke-miterlimit:4;" fill="#587ec1" stroke-width="2"></rect><rect x="2" y="2" width="27" height="27" rx="14.5" ry="14.5" fill="#ffffff"></rect><path fill="rgba(222,222,222,0.66)" transform="translate(10 10)" d="M5.53,2C2.47,2,1,5.5,1,5.5S2.47,9,5.53,9S10,5.5,10,5.5S8.6,2,5.53,2z M7,6H4C3.7239,6,3.5,5.7761,3.5,5.5S3.7239,5,4,5h3
	c0.2761,0,0.5,0.2239,0.5,0.5S7.2761,6,7,6z" style="stroke-linejoin:round;stroke-miterlimit:4;" stroke="rgba(222,222,222,0.66)" stroke-width="2"></path><path fill="#587ec1" transform="translate(10 10)" d="M5.53,2C2.47,2,1,5.5,1,5.5S2.47,9,5.53,9S10,5.5,10,5.5S8.6,2,5.53,2z M7,6H4C3.7239,6,3.5,5.7761,3.5,5.5S3.7239,5,4,5h3
	c0.2761,0,0.5,0.2239,0.5,0.5S7.2761,6,7,6z"></path></svg>