<svg xmlns="http://www.w3.org/2000/svg" viewBox="0 0 31 31" height="31" width="31"><title>barrier-11.svg</title><rect fill="none" x="0" y="0" width="31" height="31"></rect><rect x="2" y="2" rx="14.5" ry="14.5" width="27" height="27" stroke="#587ec1" style="stroke-linejoin:round;stroke-miterlimit:4;" fill="#587ec1" stroke-width="2"></rect><rect x="2" y="2" width="27" height="27" rx="14.5" ry="14.5" fill="#ffffff"></rect><path fill="rgba(222,222,222,0.66)" transform="translate(10 10)" d="M9.5,2h-8a.5.5,0,0,0-.5.5v4a.5.5,0,0,0,.5.5H2V9.5a.5.5,0,0,0,1,0V9H8v.5a.5.5,0,0,0,1,0V7h.5a.5.5,0,0,0,.5-.5v-4A.5.5,0,0,0,9.5,2ZM2,3H3.5l3,3h-2L2,3.5ZM2,6V4.5L3.5,6ZM3,8V7H8V8ZM9,6H7.5l-3-3h2L9,5.5ZM9,4.5,7.5,3H9Z" style="stroke-linejoin:round;stroke-miterlimit:4;" stroke="rgba(222,222,222,0.66)" stroke-width="2"></path><path fill="#587ec1" transform="translate(10 10)" d="M9.5,2h-8a.5.5,0,0,0-.5.5v4a.5.5,0,0,0,.5.5H2V9.5a.5.5,0,0,0,1,0V9H8v.5a.5.5,0,0,0,1,0V7h.5a.5.5,0,0,0,.5-.5v-4A.5.5,0,0,0,9.5,2ZM2,3H3.5l3,3h-2L2,3.5ZM2,6V4.5L3.5,6ZM3,8V7H8V8ZM9,6H7.5l-3-3h2L9,5.5ZM9,4.5,7.5,3H9Z"></path></svg>