<svg xmlns="http://www.w3.org/2000/svg" viewBox="0 0 35 35" height="35" width="35"><title>building-alt1-15.svg</title><rect fill="none" x="0" y="0" width="35" height="35"></rect><rect x="2" y="2" rx="16.5" ry="16.5" width="31" height="31" stroke="#587ec1" style="stroke-linejoin:round;stroke-miterlimit:4;" fill="#587ec1" stroke-width="2"></rect><rect x="2" y="2" width="31" height="31" rx="16.5" ry="16.5" fill="#ffffff"></rect><path fill="rgba(222,222,222,0.66)" transform="translate(10 10)" d="M11,13.5v-9C11,4.2,10.8,4,10.5,4H9V1L5,2.1v11.4H2V14h11v-0.5H11z M7,13.5V3h1v10.5H7z" style="stroke-linejoin:round;stroke-miterlimit:4;" stroke="rgba(222,222,222,0.66)" stroke-width="2"></path><path fill="#587ec1" transform="translate(10 10)" d="M11,13.5v-9C11,4.2,10.8,4,10.5,4H9V1L5,2.1v11.4H2V14h11v-0.5H11z M7,13.5V3h1v10.5H7z"></path></svg>