<svg xmlns="http://www.w3.org/2000/svg" viewBox="0 0 31 31" height="31" width="31"><title>circle-stroked-11.svg</title><rect fill="none" x="0" y="0" width="31" height="31"></rect><rect x="2" y="2" rx="14.5" ry="14.5" width="27" height="27" stroke="#587ec1" style="stroke-linejoin:round;stroke-miterlimit:4;" fill="#587ec1" stroke-width="2"></rect><rect x="2" y="2" width="27" height="27" rx="14.5" ry="14.5" fill="#ffffff"></rect><path fill="rgba(222,222,222,0.66)" transform="translate(10 10)" d="M5.5,0C8.5376,0,11,2.4624,11,5.5S8.5376,11,5.5,11S0,8.5376,0,5.5
	S2.4624,0,5.5,0z M5.5,1.2222c-2.3626,0-4.2778,1.9152-4.2778,4.2778S3.1374,9.7778,5.5,9.7778S9.7778,7.8626,9.7778,5.5
	S7.8626,1.2222,5.5,1.2222z" style="stroke-linejoin:round;stroke-miterlimit:4;" stroke="rgba(222,222,222,0.66)" stroke-width="2"></path><path fill="#587ec1" transform="translate(10 10)" d="M5.5,0C8.5376,0,11,2.4624,11,5.5S8.5376,11,5.5,11S0,8.5376,0,5.5
	S2.4624,0,5.5,0z M5.5,1.2222c-2.3626,0-4.2778,1.9152-4.2778,4.2778S3.1374,9.7778,5.5,9.7778S9.7778,7.8626,9.7778,5.5
	S7.8626,1.2222,5.5,1.2222z"></path></svg>