<svg xmlns="http://www.w3.org/2000/svg" viewBox="0 0 31 31" height="31" width="31"><title>city-11.svg</title><rect fill="none" x="0" y="0" width="31" height="31"></rect><rect x="2" y="2" rx="14.5" ry="14.5" width="27" height="27" stroke="#587ec1" style="stroke-linejoin:round;stroke-miterlimit:4;" fill="#587ec1" stroke-width="2"></rect><rect x="2" y="2" width="27" height="27" rx="14.5" ry="14.5" fill="#ffffff"></rect><path fill="rgba(222,222,222,0.66)" transform="translate(10 10)" d="M9.75,3H9V1.25A.25.25,0,0,0,8.75,1h-.5A.25.25,0,0,0,8,1.25V3H7.25A.25.25,0,0,0,7,3.25V7H5.251A.251.251,0,0,0,5,7.251v2.5A.251.251,0,0,0,5.251,10h4.5A.25.25,0,0,0,10,9.75V3.25A.25.25,0,0,0,9.75,3ZM6,8H7V9H6ZM9,9H8V8H9ZM9,7H8V6H9ZM9,5H8V4H9ZM6,1.25A.25.25,0,0,0,5.75,1H3.25A.25.25,0,0,0,3,1.25V2H2.25A.25.25,0,0,0,2,2.25V3H1.25A.25.25,0,0,0,1,3.25v6.5a.25.25,0,0,0,.25.25H4V6H6ZM3,9H2V8H3ZM3,7H2V6H3ZM3,5H2V4H3ZM5,5H4V4H5ZM5,3H4V2H5Z" style="stroke-linejoin:round;stroke-miterlimit:4;" stroke="rgba(222,222,222,0.66)" stroke-width="2"></path><path fill="#587ec1" transform="translate(10 10)" d="M9.75,3H9V1.25A.25.25,0,0,0,8.75,1h-.5A.25.25,0,0,0,8,1.25V3H7.25A.25.25,0,0,0,7,3.25V7H5.251A.251.251,0,0,0,5,7.251v2.5A.251.251,0,0,0,5.251,10h4.5A.25.25,0,0,0,10,9.75V3.25A.25.25,0,0,0,9.75,3ZM6,8H7V9H6ZM9,9H8V8H9ZM9,7H8V6H9ZM9,5H8V4H9ZM6,1.25A.25.25,0,0,0,5.75,1H3.25A.25.25,0,0,0,3,1.25V2H2.25A.25.25,0,0,0,2,2.25V3H1.25A.25.25,0,0,0,1,3.25v6.5a.25.25,0,0,0,.25.25H4V6H6ZM3,9H2V8H3ZM3,7H2V6H3ZM3,5H2V4H3ZM5,5H4V4H5ZM5,3H4V2H5Z"></path></svg>