<svg xmlns="http://www.w3.org/2000/svg" viewBox="0 0 35 35" height="35" width="35"><title>city-15.svg</title><rect fill="none" x="0" y="0" width="35" height="35"></rect><rect x="2" y="2" rx="16.5" ry="16.5" width="31" height="31" stroke="#587ec1" style="stroke-linejoin:round;stroke-miterlimit:4;" fill="#587ec1" stroke-width="2"></rect><rect x="2" y="2" width="31" height="31" rx="16.5" ry="16.5" fill="#ffffff"></rect><path fill="rgba(222,222,222,0.66)" transform="translate(10 10)" d="M13.639,4H12V1.361A.361.361,0,0,0,11.639,1h-.278A.361.361,0,0,0,11,1.361h0V4H9.361A.361.361,0,0,0,9,4.361H9V10H5.363A.363.363,0,0,0,5,10.363v3.275A.363.363,0,0,0,5.363,14h8.276A.361.361,0,0,0,14,13.639h0V4.361A.361.361,0,0,0,13.639,4ZM7,12H6V11H7Zm2,0H8V11H9Zm2,0H10V11h1Zm0-2H10V9h1Zm0-2H10V7h1Zm0-2H10V5h1Zm2,6H12V11h1Zm0-2H12V9h1Zm0-2H12V7h1Zm0-2H12V5h1ZM8,1.361A.361.361,0,0,0,7.639,1H5.361A.361.361,0,0,0,5,1.361H5V3H3.361A.361.361,0,0,0,3,3.361H3V4H1.361A.361.361,0,0,0,1,4.361H1v9.278A.361.361,0,0,0,1.361,14H4V9H8ZM3,12H2V11H3Zm0-2H2V9H3ZM3,8H2V7H3ZM3,6H2V5H3ZM5,8H4V7H5ZM5,6H4V5H5ZM7,8H6V7H7ZM7,6H6V5H7ZM7,4H6V3H7Z" style="stroke-linejoin:round;stroke-miterlimit:4;" stroke="rgba(222,222,222,0.66)" stroke-width="2"></path><path fill="#587ec1" transform="translate(10 10)" d="M13.639,4H12V1.361A.361.361,0,0,0,11.639,1h-.278A.361.361,0,0,0,11,1.361h0V4H9.361A.361.361,0,0,0,9,4.361H9V10H5.363A.363.363,0,0,0,5,10.363v3.275A.363.363,0,0,0,5.363,14h8.276A.361.361,0,0,0,14,13.639h0V4.361A.361.361,0,0,0,13.639,4ZM7,12H6V11H7Zm2,0H8V11H9Zm2,0H10V11h1Zm0-2H10V9h1Zm0-2H10V7h1Zm0-2H10V5h1Zm2,6H12V11h1Zm0-2H12V9h1Zm0-2H12V7h1Zm0-2H12V5h1ZM8,1.361A.361.361,0,0,0,7.639,1H5.361A.361.361,0,0,0,5,1.361H5V3H3.361A.361.361,0,0,0,3,3.361H3V4H1.361A.361.361,0,0,0,1,4.361H1v9.278A.361.361,0,0,0,1.361,14H4V9H8ZM3,12H2V11H3Zm0-2H2V9H3ZM3,8H2V7H3ZM3,6H2V5H3ZM5,8H4V7H5ZM5,6H4V5H5ZM7,8H6V7H7ZM7,6H6V5H7ZM7,4H6V3H7Z"></path></svg>