<svg xmlns="http://www.w3.org/2000/svg" viewBox="0 0 35 35" height="35" width="35"><title>commercial-15.svg</title><rect fill="none" x="0" y="0" width="35" height="35"></rect><rect x="2" y="2" rx="16.5" ry="16.5" width="31" height="31" stroke="#587ec1" style="stroke-linejoin:round;stroke-miterlimit:4;" fill="#587ec1" stroke-width="2"></rect><rect x="2" y="2" width="31" height="31" rx="16.5" ry="16.5" fill="#ffffff"></rect><path fill="rgba(222,222,222,0.66)" transform="translate(10 10)" d="M14,7H1c0.0881-1.3829,0.427-2.7383,1-4h11C13.5731,4.2617,13.9119,5.6171,14,7z M3,8h9v6h-1V9H8v5H3V8z M4,11h3V9H4V11z" style="stroke-linejoin:round;stroke-miterlimit:4;" stroke="rgba(222,222,222,0.66)" stroke-width="2"></path><path fill="#587ec1" transform="translate(10 10)" d="M14,7H1c0.0881-1.3829,0.427-2.7383,1-4h11C13.5731,4.2617,13.9119,5.6171,14,7z M3,8h9v6h-1V9H8v5H3V8z M4,11h3V9H4V11z"></path></svg>