<svg xmlns="http://www.w3.org/2000/svg" viewBox="0 0 31 31" height="31" width="31"><title>commercial-11.svg</title><rect fill="none" x="0" y="0" width="31" height="31"></rect><rect x="2" y="2" rx="14.5" ry="14.5" width="27" height="27" stroke="#587ec1" style="stroke-linejoin:round;stroke-miterlimit:4;" fill="#587ec1" stroke-width="2"></rect><rect x="2" y="2" width="27" height="27" rx="14.5" ry="14.5" fill="#ffffff"></rect><path fill="rgba(222,222,222,0.66)" transform="translate(10 10)" d="M0,5c-0.0224-1.0854,0.3309-2.1451,1-3h9c0.6691,0.8549,1.0224,1.9146,1,3H0z M2,6v5h4V7h2v4h1V6H2z M5,9H3V7h2V9z" style="stroke-linejoin:round;stroke-miterlimit:4;" stroke="rgba(222,222,222,0.66)" stroke-width="2"></path><path fill="#587ec1" transform="translate(10 10)" d="M0,5c-0.0224-1.0854,0.3309-2.1451,1-3h9c0.6691,0.8549,1.0224,1.9146,1,3H0z M2,6v5h4V7h2v4h1V6H2z M5,9H3V7h2V9z"></path></svg>