<svg xmlns="http://www.w3.org/2000/svg" viewBox="0 0 31 31" height="31" width="31"><title>defibrillator-11.svg</title><rect fill="none" x="0" y="0" width="31" height="31"></rect><rect x="2" y="2" rx="14.5" ry="14.5" width="27" height="27" stroke="#587ec1" style="stroke-linejoin:round;stroke-miterlimit:4;" fill="#587ec1" stroke-width="2"></rect><rect x="2" y="2" width="27" height="27" rx="14.5" ry="14.5" fill="#ffffff"></rect><path fill="rgba(222,222,222,0.66)" transform="translate(10 10)" d="M1.42,4.7955C-0.2131,1.5291,3.9327-.6514,5.512,2.6149,7.0914-.6514,11.2371,1.5291,9.6039,4.7955c-0.0225.0377-.0483,0.0732-0.071,0.1108H8.3867L7.5586,3.252a0.65,0.65,0,0,0-1.1172,0L5,6.1338,4.5586,5.252A0.6243,0.6243,0,0,0,4,4.9063H1.4913C1.4685,4.8687,1.4427,4.8332,1.42,4.7955ZM8,6.1563a0.6243,0.6243,0,0,1-.5586-0.3457L7,4.9287,5.5586,7.8105a0.6241,0.6241,0,0,1-1.1172,0L3.6133,6.1563H2.3006a24.2269,24.2269,0,0,0,2.8973,3.449L5.2134,9.6208A0.44,0.44,0,0,0,5.835,9.6053a24.2289,24.2289,0,0,0,2.8905-3.449H8Z" style="stroke-linejoin:round;stroke-miterlimit:4;" stroke="rgba(222,222,222,0.66)" stroke-width="2"></path><path fill="#587ec1" transform="translate(10 10)" d="M1.42,4.7955C-0.2131,1.5291,3.9327-.6514,5.512,2.6149,7.0914-.6514,11.2371,1.5291,9.6039,4.7955c-0.0225.0377-.0483,0.0732-0.071,0.1108H8.3867L7.5586,3.252a0.65,0.65,0,0,0-1.1172,0L5,6.1338,4.5586,5.252A0.6243,0.6243,0,0,0,4,4.9063H1.4913C1.4685,4.8687,1.4427,4.8332,1.42,4.7955ZM8,6.1563a0.6243,0.6243,0,0,1-.5586-0.3457L7,4.9287,5.5586,7.8105a0.6241,0.6241,0,0,1-1.1172,0L3.6133,6.1563H2.3006a24.2269,24.2269,0,0,0,2.8973,3.449L5.2134,9.6208A0.44,0.44,0,0,0,5.835,9.6053a24.2289,24.2289,0,0,0,2.8905-3.449H8Z"></path></svg>