<svg xmlns="http://www.w3.org/2000/svg" viewBox="0 0 35 35" height="35" width="35"><title>farm-15.svg</title><rect fill="none" x="0" y="0" width="35" height="35"></rect><rect x="2" y="2" rx="16.5" ry="16.5" width="31" height="31" stroke="#587ec1" style="stroke-linejoin:round;stroke-miterlimit:4;" fill="#587ec1" stroke-width="2"></rect><rect x="2" y="2" width="31" height="31" rx="16.5" ry="16.5" fill="#ffffff"></rect><path fill="rgba(222,222,222,0.66)" transform="translate(10 10)" d="M8,7L5,5,2,7,1,9v4H3V11H7v2H9V9ZM6,9H4V7H6V9Zm8,4H11V3.5a1.5,1.5,0,0,1,3,0V13Z" style="stroke-linejoin:round;stroke-miterlimit:4;" stroke="rgba(222,222,222,0.66)" stroke-width="2"></path><path fill="#587ec1" transform="translate(10 10)" d="M8,7L5,5,2,7,1,9v4H3V11H7v2H9V9ZM6,9H4V7H6V9Zm8,4H11V3.5a1.5,1.5,0,0,1,3,0V13Z"></path></svg>