<svg xmlns="http://www.w3.org/2000/svg" viewBox="0 0 31 31" height="31" width="31"><title>farm-11.svg</title><rect fill="none" x="0" y="0" width="31" height="31"></rect><rect x="2" y="2" rx="14.5" ry="14.5" width="27" height="27" stroke="#587ec1" style="stroke-linejoin:round;stroke-miterlimit:4;" fill="#587ec1" stroke-width="2"></rect><rect x="2" y="2" width="27" height="27" rx="14.5" ry="14.5" fill="#ffffff"></rect><path fill="rgba(222,222,222,0.66)" transform="translate(10 10)" d="M6,5L4,4,2,5,1,7v3l1.5,0V8h3v2L7,10V7ZM5,7H3V5.5H5V7Z" style="stroke-linejoin:round;stroke-miterlimit:4;" stroke="rgba(222,222,222,0.66)" stroke-width="2"></path><path fill="rgba(222,222,222,0.66)" transform="translate(10 10)" d="M10,2A1,1,0,0,0,8,2v8h2V2Z" style="stroke-linejoin:round;stroke-miterlimit:4;" stroke="rgba(222,222,222,0.66)" stroke-width="2"></path><path fill="#587ec1" transform="translate(10 10)" d="M6,5L4,4,2,5,1,7v3l1.5,0V8h3v2L7,10V7ZM5,7H3V5.5H5V7Z"></path><path fill="#587ec1" transform="translate(10 10)" d="M10,2A1,1,0,0,0,8,2v8h2V2Z"></path></svg>