<svg xmlns="http://www.w3.org/2000/svg" viewBox="0 0 31 31" height="31" width="31"><title>gaming-11.svg</title><rect fill="none" x="0" y="0" width="31" height="31"></rect><rect x="2" y="2" rx="14.5" ry="14.5" width="27" height="27" stroke="#587ec1" style="stroke-linejoin:round;stroke-miterlimit:4;" fill="#587ec1" stroke-width="2"></rect><rect x="2" y="2" width="27" height="27" rx="14.5" ry="14.5" fill="#ffffff"></rect><path fill="rgba(222,222,222,0.66)" transform="translate(10 10)" d="M9.715,5.8a2.046,2.046,0,0,0-2-1.8h-1.7V2.5c0-.2.2-.5.4-.5h2.1a.472.472,0,0,0,.5-.5.472.472,0,0,0-.5-.5h-2a1.453,1.453,0,0,0-1.5,1.4V4h-1.8a2.046,2.046,0,0,0-2,1.8l-.2,2.8a.991.991,0,0,0,.8,1.1,1.613,1.613,0,0,0,.9-.3L4.115,8h2.8l1.4,1.4a1.071,1.071,0,0,0,1.4.1,1.613,1.613,0,0,0,.3-.9ZM4.015,7h-2V6a.945.945,0,0,1,1-1h1Zm5,0h-2V5h1a1,1,0,0,1,1,1Z" style="stroke-linejoin:round;stroke-miterlimit:4;" stroke="rgba(222,222,222,0.66)" stroke-width="2"></path><path fill="#587ec1" transform="translate(10 10)" d="M9.715,5.8a2.046,2.046,0,0,0-2-1.8h-1.7V2.5c0-.2.2-.5.4-.5h2.1a.472.472,0,0,0,.5-.5.472.472,0,0,0-.5-.5h-2a1.453,1.453,0,0,0-1.5,1.4V4h-1.8a2.046,2.046,0,0,0-2,1.8l-.2,2.8a.991.991,0,0,0,.8,1.1,1.613,1.613,0,0,0,.9-.3L4.115,8h2.8l1.4,1.4a1.071,1.071,0,0,0,1.4.1,1.613,1.613,0,0,0,.3-.9ZM4.015,7h-2V6a.945.945,0,0,1,1-1h1Zm5,0h-2V5h1a1,1,0,0,1,1,1Z"></path></svg>