<svg xmlns="http://www.w3.org/2000/svg" viewBox="0 0 35 35" height="35" width="35"><title>hospital-15.svg</title><rect fill="none" x="0" y="0" width="35" height="35"></rect><rect x="2" y="2" rx="16.5" ry="16.5" width="31" height="31" stroke="#587ec1" style="stroke-linejoin:round;stroke-miterlimit:4;" fill="#587ec1" stroke-width="2"></rect><rect x="2" y="2" width="31" height="31" rx="16.5" ry="16.5" fill="#ffffff"></rect><path fill="rgba(222,222,222,0.66)" transform="translate(10 10)" d="M7,1C6.4,1,6,1.4,6,2v4H2C1.4,6,1,6.4,1,7v1
	c0,0.6,0.4,1,1,1h4v4c0,0.6,0.4,1,1,1h1c0.6,0,1-0.4,1-1V9h4c0.6,0,1-0.4,1-1V7c0-0.6-0.4-1-1-1H9V2c0-0.6-0.4-1-1-1H7z" style="stroke-linejoin:round;stroke-miterlimit:4;" stroke="rgba(222,222,222,0.66)" stroke-width="2"></path><path fill="#587ec1" transform="translate(10 10)" d="M7,1C6.4,1,6,1.4,6,2v4H2C1.4,6,1,6.4,1,7v1
	c0,0.6,0.4,1,1,1h4v4c0,0.6,0.4,1,1,1h1c0.6,0,1-0.4,1-1V9h4c0.6,0,1-0.4,1-1V7c0-0.6-0.4-1-1-1H9V2c0-0.6-0.4-1-1-1H7z"></path></svg>