<svg xmlns="http://www.w3.org/2000/svg" viewBox="0 0 31 31" height="31" width="31"><title>hospital-11.svg</title><rect fill="none" x="0" y="0" width="31" height="31"></rect><rect x="2" y="2" rx="14.5" ry="14.5" width="27" height="27" stroke="#587ec1" style="stroke-linejoin:round;stroke-miterlimit:4;" fill="#587ec1" stroke-width="2"></rect><rect x="2" y="2" width="27" height="27" rx="14.5" ry="14.5" fill="#ffffff"></rect><path fill="rgba(222,222,222,0.66)" transform="translate(10 10)" d="M10,4H7V1C6.9616,0.4644,6.5356,0.0384,6,0H5C4.4644,0.0384,4.0384,0.4644,4,1v3H1C0.4644,4.0384,0.0384,4.4644,0,5v1
	c0.0384,0.5356,0.4644,0.9616,1,1h3v3c0.0384,0.5356,0.4644,0.9616,1,1h1c0.5356-0.0384,0.9616-0.4644,1-1V7h3
	c0.5356-0.0384,0.9616-0.4644,1-1V5C11,4.4477,10.5523,4,10,4z" style="stroke-linejoin:round;stroke-miterlimit:4;" stroke="rgba(222,222,222,0.66)" stroke-width="2"></path><path fill="#587ec1" transform="translate(10 10)" d="M10,4H7V1C6.9616,0.4644,6.5356,0.0384,6,0H5C4.4644,0.0384,4.0384,0.4644,4,1v3H1C0.4644,4.0384,0.0384,4.4644,0,5v1
	c0.0384,0.5356,0.4644,0.9616,1,1h3v3c0.0384,0.5356,0.4644,0.9616,1,1h1c0.5356-0.0384,0.9616-0.4644,1-1V7h3
	c0.5356-0.0384,0.9616-0.4644,1-1V5C11,4.4477,10.5523,4,10,4z"></path></svg>