<svg xmlns="http://www.w3.org/2000/svg" viewBox="0 0 35 35" height="35" width="35"><title>industry-15.svg</title><rect fill="none" x="0" y="0" width="35" height="35"></rect><rect x="2" y="2" rx="16.5" ry="16.5" width="31" height="31" stroke="#587ec1" style="stroke-linejoin:round;stroke-miterlimit:4;" fill="#587ec1" stroke-width="2"></rect><rect x="2" y="2" width="31" height="31" rx="16.5" ry="16.5" fill="#ffffff"></rect><path fill="rgba(222,222,222,0.66)" transform="translate(10 10)" d="M14,1v12H1V8.72c0.0016-0.1419,0.0634-0.2764,0.17-0.37l3-3.22c0.2074-0.1823,0.5234-0.1618,0.7056,0.0456
	C4.9568,5.268,5.0011,5.387,5,5.51v3l3.16-3.37c0.2025-0.1878,0.5188-0.1759,0.7066,0.0266C8.9532,5.2599,9.0009,5.3827,9,5.51V11h3
	V1H14z" style="stroke-linejoin:round;stroke-miterlimit:4;" stroke="rgba(222,222,222,0.66)" stroke-width="2"></path><path fill="#587ec1" transform="translate(10 10)" d="M14,1v12H1V8.72c0.0016-0.1419,0.0634-0.2764,0.17-0.37l3-3.22c0.2074-0.1823,0.5234-0.1618,0.7056,0.0456
	C4.9568,5.268,5.0011,5.387,5,5.51v3l3.16-3.37c0.2025-0.1878,0.5188-0.1759,0.7066,0.0266C8.9532,5.2599,9.0009,5.3827,9,5.51V11h3
	V1H14z"></path></svg>