<svg xmlns="http://www.w3.org/2000/svg" viewBox="0 0 31 31" height="31" width="31"><title>industry-11.svg</title><rect fill="none" x="0" y="0" width="31" height="31"></rect><rect x="2" y="2" rx="14.5" ry="14.5" width="27" height="27" stroke="#587ec1" style="stroke-linejoin:round;stroke-miterlimit:4;" fill="#587ec1" stroke-width="2"></rect><rect x="2" y="2" width="27" height="27" rx="14.5" ry="14.5" fill="#ffffff"></rect><path fill="rgba(222,222,222,0.66)" transform="translate(10 10)" d="M10,1v8H1V6l2.11-1.78C3.43,3.9,4,3.91,4,4.36V6l2.13-1.86c0.1854-0.2047,0.5016-0.2203,0.7062-0.0349
	C6.9472,4.2056,7.0073,4.3505,7,4.5V8h2V1H10z" style="stroke-linejoin:round;stroke-miterlimit:4;" stroke="rgba(222,222,222,0.66)" stroke-width="2"></path><path fill="#587ec1" transform="translate(10 10)" d="M10,1v8H1V6l2.11-1.78C3.43,3.9,4,3.91,4,4.36V6l2.13-1.86c0.1854-0.2047,0.5016-0.2203,0.7062-0.0349
	C6.9472,4.2056,7.0073,4.3505,7,4.5V8h2V1H10z"></path></svg>