<svg xmlns="http://www.w3.org/2000/svg" viewBox="0 0 35 35" height="35" width="35"><title>information-15.svg</title><rect fill="none" x="0" y="0" width="35" height="35"></rect><rect x="2" y="2" rx="16.5" ry="16.5" width="31" height="31" stroke="#587ec1" style="stroke-linejoin:round;stroke-miterlimit:4;" fill="#587ec1" stroke-width="2"></rect><rect x="2" y="2" width="31" height="31" rx="16.5" ry="16.5" fill="#ffffff"></rect><path fill="rgba(222,222,222,0.66)" transform="translate(10 10)" d="M7.5,1
	C6.7,1,6,1.7,6,2.5S6.7,4,7.5,4S9,3.3,9,2.5S8.3,1,7.5,1z M4,5v1c0,0,2,0,2,2v2c0,2-2,2-2,2v1h7v-1c0,0-2,0-2-2V6c0-0.5-0.5-1-1-1H4
	z" style="stroke-linejoin:round;stroke-miterlimit:4;" stroke="rgba(222,222,222,0.66)" stroke-width="2"></path><path fill="#587ec1" transform="translate(10 10)" d="M7.5,1
	C6.7,1,6,1.7,6,2.5S6.7,4,7.5,4S9,3.3,9,2.5S8.3,1,7.5,1z M4,5v1c0,0,2,0,2,2v2c0,2-2,2-2,2v1h7v-1c0,0-2,0-2-2V6c0-0.5-0.5-1-1-1H4
	z"></path></svg>