<svg xmlns="http://www.w3.org/2000/svg" viewBox="0 0 31 31" height="31" width="31"><title>information-11.svg</title><rect fill="none" x="0" y="0" width="31" height="31"></rect><rect x="2" y="2" rx="14.5" ry="14.5" width="27" height="27" stroke="#587ec1" style="stroke-linejoin:round;stroke-miterlimit:4;" fill="#587ec1" stroke-width="2"></rect><rect x="2" y="2" width="27" height="27" rx="14.5" ry="14.5" fill="#ffffff"></rect><path fill="rgba(222,222,222,0.66)" transform="translate(10 10)" d="
	M5.5989,0.9391c-0.6,0-1.1,0.5-1.1,1.1s0.5,1.1,1.1,1.1s1.1-0.5,1.1-1.1S6.1989,0.9391,5.5989,0.9391z M3,4L2.9989,4.7391
	C2.9989,4.7391,4.5,4.6353,4.5,6v1.5c0,1.5-1.5011,1.7391-1.5011,1.7391L3,10h5.2L8.1989,9.2391c0,0-1.2,0-1.2-1.5L7,5c0,0,0-1-1-1
	H3z" style="stroke-linejoin:round;stroke-miterlimit:4;" stroke="rgba(222,222,222,0.66)" stroke-width="2"></path><path fill="#587ec1" transform="translate(10 10)" d="
	M5.5989,0.9391c-0.6,0-1.1,0.5-1.1,1.1s0.5,1.1,1.1,1.1s1.1-0.5,1.1-1.1S6.1989,0.9391,5.5989,0.9391z M3,4L2.9989,4.7391
	C2.9989,4.7391,4.5,4.6353,4.5,6v1.5c0,1.5-1.5011,1.7391-1.5011,1.7391L3,10h5.2L8.1989,9.2391c0,0-1.2,0-1.2-1.5L7,5c0,0,0-1-1-1
	H3z"></path></svg>