<svg xmlns="http://www.w3.org/2000/svg" viewBox="0 0 31 31" height="31" width="31"><title>karaoke-11.svg</title><rect fill="none" x="0" y="0" width="31" height="31"></rect><rect x="2" y="2" rx="14.5" ry="14.5" width="27" height="27" stroke="#587ec1" style="stroke-linejoin:round;stroke-miterlimit:4;" fill="#587ec1" stroke-width="2"></rect><rect x="2" y="2" width="27" height="27" rx="14.5" ry="14.5" fill="#ffffff"></rect><path fill="rgba(222,222,222,0.66)" transform="translate(10 10)" d="M4.5,4.4l-2,2l-1,1C1,7.8,0.9,8.5,1.2,9.1l0.6,0.7c0.6,0.4,1.3,0.2,1.7-0.3l1-1l2-2L4.5,4.4z M3.1,8.5L2.5,7.8l2-2l0.7,0.7
	L3.1,8.5z M5,2l1-1h3l1,1v3L9,6H8L5,3V2z" style="stroke-linejoin:round;stroke-miterlimit:4;" stroke="rgba(222,222,222,0.66)" stroke-width="2"></path><path fill="#587ec1" transform="translate(10 10)" d="M4.5,4.4l-2,2l-1,1C1,7.8,0.9,8.5,1.2,9.1l0.6,0.7c0.6,0.4,1.3,0.2,1.7-0.3l1-1l2-2L4.5,4.4z M3.1,8.5L2.5,7.8l2-2l0.7,0.7
	L3.1,8.5z M5,2l1-1h3l1,1v3L9,6H8L5,3V2z"></path></svg>