<svg xmlns="http://www.w3.org/2000/svg" viewBox="0 0 35 35" height="35" width="35"><title>landmark-15.svg</title><rect fill="none" x="0" y="0" width="35" height="35"></rect><rect x="2" y="2" rx="16.5" ry="16.5" width="31" height="31" stroke="#587ec1" style="stroke-linejoin:round;stroke-miterlimit:4;" fill="#587ec1" stroke-width="2"></rect><rect x="2" y="2" width="31" height="31" rx="16.5" ry="16.5" fill="#ffffff"></rect><path fill="rgba(222,222,222,0.66)" transform="translate(10 10)" d="M12.5,12H12v-0.5c0-0.3-0.2-0.5-0.5-0.5H11V6h1l1-2c-1,0.1-2,0.1-3,0C9.2,3.4,8.6,2.8,8,2V1.5C8,1.2,7.8,1,7.5,1
	S7,1.2,7,1.5V2C6.4,2.8,5.8,3.4,5,4C4,4.1,3,4.1,2,4l1,2h1v5c0,0-0.5,0-0.5,0C3.2,11,3,11.2,3,11.5V12H2.5C2.2,12,2,12.2,2,12.5V13
	h11v-0.5C13,12.2,12.8,12,12.5,12z M7,11H5V6h2V11z M10,11H8V6h2V11z" style="stroke-linejoin:round;stroke-miterlimit:4;" stroke="rgba(222,222,222,0.66)" stroke-width="2"></path><path fill="#587ec1" transform="translate(10 10)" d="M12.5,12H12v-0.5c0-0.3-0.2-0.5-0.5-0.5H11V6h1l1-2c-1,0.1-2,0.1-3,0C9.2,3.4,8.6,2.8,8,2V1.5C8,1.2,7.8,1,7.5,1
	S7,1.2,7,1.5V2C6.4,2.8,5.8,3.4,5,4C4,4.1,3,4.1,2,4l1,2h1v5c0,0-0.5,0-0.5,0C3.2,11,3,11.2,3,11.5V12H2.5C2.2,12,2,12.2,2,12.5V13
	h11v-0.5C13,12.2,12.8,12,12.5,12z M7,11H5V6h2V11z M10,11H8V6h2V11z"></path></svg>