<svg xmlns="http://www.w3.org/2000/svg" viewBox="0 0 35 35" height="35" width="35"><title>laundry-15.svg</title><rect fill="none" x="0" y="0" width="35" height="35"></rect><rect x="2" y="2" rx="16.5" ry="16.5" width="31" height="31" stroke="#587ec1" style="stroke-linejoin:round;stroke-miterlimit:4;" fill="#587ec1" stroke-width="2"></rect><rect x="2" y="2" width="31" height="31" rx="16.5" ry="16.5" fill="#ffffff"></rect><path fill="rgba(222,222,222,0.66)" transform="translate(10 10)" d="M8,1L6,3H3c0,0-1,0-1,1v9c0,1,1,1,1,1h9c0,0,1,0,1-1V2c0-1-1-1-1-1
	S8,1,8,1z M8.5,2h2C10.777,2,11,2.223,11,2.5S10.777,3,10.5,3h-2C8.223,3,8,2.777,8,2.5S8.223,2,8.5,2z M7.5,6
	c1.6569,0,3,1.3431,3,3s-1.3431,3-3,3s-3-1.3431-3-3S5.8431,6,7.5,6z" style="stroke-linejoin:round;stroke-miterlimit:4;" stroke="rgba(222,222,222,0.66)" stroke-width="2"></path><path fill="#587ec1" transform="translate(10 10)" d="M8,1L6,3H3c0,0-1,0-1,1v9c0,1,1,1,1,1h9c0,0,1,0,1-1V2c0-1-1-1-1-1
	S8,1,8,1z M8.5,2h2C10.777,2,11,2.223,11,2.5S10.777,3,10.5,3h-2C8.223,3,8,2.777,8,2.5S8.223,2,8.5,2z M7.5,6
	c1.6569,0,3,1.3431,3,3s-1.3431,3-3,3s-3-1.3431-3-3S5.8431,6,7.5,6z"></path></svg>