<svg xmlns="http://www.w3.org/2000/svg" viewBox="0 0 31 31" height="31" width="31"><title>mobile-phone-11.svg</title><rect fill="none" x="0" y="0" width="31" height="31"></rect><rect x="2" y="2" rx="14.5" ry="14.5" width="27" height="27" stroke="#587ec1" style="stroke-linejoin:round;stroke-miterlimit:4;" fill="#587ec1" stroke-width="2"></rect><rect x="2" y="2" width="27" height="27" rx="14.5" ry="14.5" fill="#ffffff"></rect><path fill="rgba(222,222,222,0.66)" transform="translate(10 10)" d="M7,2V1.5a.5.5,0,0,0-1,0V2H4A1,1,0,0,0,3,3V9a1,1,0,0,0,1,1H7A1,1,0,0,0,8,9V3A1,1,0,0,0,7,2ZM5,9H4V8H5ZM5,7H4V6H5ZM7,9H6V8H7ZM7,7H6V6H7ZM7,5H4V3H7Z" style="stroke-linejoin:round;stroke-miterlimit:4;" stroke="rgba(222,222,222,0.66)" stroke-width="2"></path><path fill="#587ec1" transform="translate(10 10)" d="M7,2V1.5a.5.5,0,0,0-1,0V2H4A1,1,0,0,0,3,3V9a1,1,0,0,0,1,1H7A1,1,0,0,0,8,9V3A1,1,0,0,0,7,2ZM5,9H4V8H5ZM5,7H4V6H5ZM7,9H6V8H7ZM7,7H6V6H7ZM7,5H4V3H7Z"></path></svg>