<svg xmlns="http://www.w3.org/2000/svg" viewBox="0 0 35 35" height="35" width="35"><title>mobile-phone-15.svg</title><rect fill="none" x="0" y="0" width="35" height="35"></rect><rect x="2" y="2" rx="16.5" ry="16.5" width="31" height="31" stroke="#587ec1" style="stroke-linejoin:round;stroke-miterlimit:4;" fill="#587ec1" stroke-width="2"></rect><rect x="2" y="2" width="31" height="31" rx="16.5" ry="16.5" fill="#ffffff"></rect><path fill="rgba(222,222,222,0.66)" transform="translate(10 10)" d="M10,2h0V1.5a.5.5,0,0,0-1,0V2H5A1,1,0,0,0,4,3V13a1,1,0,0,0,1,1h5a1,1,0,0,0,1-1V3A1,1,0,0,0,10,2ZM6,13H5V12H6Zm0-2H5V10H6ZM6,9H5V8H6Zm2,4H7V12H8Zm0-2H7V10H8ZM8,9H7V8H8Zm2,4H9V12h1Zm0-2H9V10h1Zm0-2H9V8h1Zm0-2.5a.5.5,0,0,1-.5.5h-4A.5.5,0,0,1,5,6.5v-3A.5.5,0,0,1,5.5,3h4a.5.5,0,0,1,.5.5Z" style="stroke-linejoin:round;stroke-miterlimit:4;" stroke="rgba(222,222,222,0.66)" stroke-width="2"></path><path fill="#587ec1" transform="translate(10 10)" d="M10,2h0V1.5a.5.5,0,0,0-1,0V2H5A1,1,0,0,0,4,3V13a1,1,0,0,0,1,1h5a1,1,0,0,0,1-1V3A1,1,0,0,0,10,2ZM6,13H5V12H6Zm0-2H5V10H6ZM6,9H5V8H6Zm2,4H7V12H8Zm0-2H7V10H8ZM8,9H7V8H8Zm2,4H9V12h1Zm0-2H9V10h1Zm0-2H9V8h1Zm0-2.5a.5.5,0,0,1-.5.5h-4A.5.5,0,0,1,5,6.5v-3A.5.5,0,0,1,5.5,3h4a.5.5,0,0,1,.5.5Z"></path></svg>