<svg xmlns="http://www.w3.org/2000/svg" viewBox="0 0 31 31" height="31" width="31"><title>pharmacy-11.svg</title><rect fill="none" x="0" y="0" width="31" height="31"></rect><rect x="2" y="2" rx="14.5" ry="14.5" width="27" height="27" stroke="#587ec1" style="stroke-linejoin:round;stroke-miterlimit:4;" fill="#587ec1" stroke-width="2"></rect><rect x="2" y="2" width="27" height="27" rx="14.5" ry="14.5" fill="#ffffff"></rect><path fill="rgba(222,222,222,0.66)" transform="translate(10 10)" d="M6,4l2-2C7.9899,1.9304,7.9899,1.8596,8,1.79c0-0.4142,0.3358-0.75,0.75-0.75S9.5,1.3758,9.5,1.79S9.1642,2.54,8.75,2.54
	H8.64L7.5,4H6z M9.48,5.83L8.65,7.5l0.83,1.67V10h-8V9.17L2.32,7.5L1.48,5.83V5h8V5.83z M7.5,7H6V5.5H5V7H3.5v1H5v1.5h1V8h1.5V7z" style="stroke-linejoin:round;stroke-miterlimit:4;" stroke="rgba(222,222,222,0.66)" stroke-width="2"></path><path fill="#587ec1" transform="translate(10 10)" d="M6,4l2-2C7.9899,1.9304,7.9899,1.8596,8,1.79c0-0.4142,0.3358-0.75,0.75-0.75S9.5,1.3758,9.5,1.79S9.1642,2.54,8.75,2.54
	H8.64L7.5,4H6z M9.48,5.83L8.65,7.5l0.83,1.67V10h-8V9.17L2.32,7.5L1.48,5.83V5h8V5.83z M7.5,7H6V5.5H5V7H3.5v1H5v1.5h1V8h1.5V7z"></path></svg>