<svg xmlns="http://www.w3.org/2000/svg" viewBox="0 0 31 31" height="31" width="31"><title>police-11.svg</title><rect fill="none" x="0" y="0" width="31" height="31"></rect><rect x="2" y="2" rx="14.5" ry="14.5" width="27" height="27" stroke="#587ec1" style="stroke-linejoin:round;stroke-miterlimit:4;" fill="#587ec1" stroke-width="2"></rect><rect x="2" y="2" width="27" height="27" rx="14.5" ry="14.5" fill="#ffffff"></rect><path fill="rgba(222,222,222,0.66)" transform="translate(10 10)" d="M4.5,0.5l0.5,1h3
	l0.5-1H4.5z M5,2v1c0,0.8284,0.6716,1.5,1.5,1.5S8,3.8284,8,3V2H5z M1.75,3C1,3,1,3.75,1,3.75v3
	c0.0006,0.506,0.4918,0.8663,0.9746,0.7148L4,6.8262V10l4-5H5c0,0-0.1945,0-0.4238,0.0723L2.5,5.7266V3.75C2.5,3.75,2.5,3,1.75,3z
	 M8.7715,5.3887L5,10h4V6C9,5.7648,8.9064,5.5591,8.7715,5.3887z" style="stroke-linejoin:round;stroke-miterlimit:4;" stroke="rgba(222,222,222,0.66)" stroke-width="2"></path><path fill="#587ec1" transform="translate(10 10)" d="M4.5,0.5l0.5,1h3
	l0.5-1H4.5z M5,2v1c0,0.8284,0.6716,1.5,1.5,1.5S8,3.8284,8,3V2H5z M1.75,3C1,3,1,3.75,1,3.75v3
	c0.0006,0.506,0.4918,0.8663,0.9746,0.7148L4,6.8262V10l4-5H5c0,0-0.1945,0-0.4238,0.0723L2.5,5.7266V3.75C2.5,3.75,2.5,3,1.75,3z
	 M8.7715,5.3887L5,10h4V6C9,5.7648,8.9064,5.5591,8.7715,5.3887z"></path></svg>