<svg xmlns="http://www.w3.org/2000/svg" viewBox="0 0 31 31" height="31" width="31"><title>ranger-station-11.svg</title><rect fill="none" x="0" y="0" width="31" height="31"></rect><rect x="2" y="2" rx="14.5" ry="14.5" width="27" height="27" stroke="#587ec1" style="stroke-linejoin:round;stroke-miterlimit:4;" fill="#587ec1" stroke-width="2"></rect><rect x="2" y="2" width="27" height="27" rx="14.5" ry="14.5" fill="#ffffff"></rect><path fill="rgba(222,222,222,0.66)" transform="translate(10 10)" d="M6.334,0L5,1v3L1,6.0547V10h3V7
	h3v3h3V6.0547L6,4V2.25L6.334,2l1.332,1L9,2V0L7.666,1L6.334,0z" style="stroke-linejoin:round;stroke-miterlimit:4;" stroke="rgba(222,222,222,0.66)" stroke-width="2"></path><path fill="#587ec1" transform="translate(10 10)" d="M6.334,0L5,1v3L1,6.0547V10h3V7
	h3v3h3V6.0547L6,4V2.25L6.334,2l1.332,1L9,2V0L7.666,1L6.334,0z"></path></svg>