<svg xmlns="http://www.w3.org/2000/svg" viewBox="0 0 35 35" height="35" width="35"><title>ranger-station-15.svg</title><rect fill="none" x="0" y="0" width="35" height="35"></rect><rect x="2" y="2" rx="16.5" ry="16.5" width="31" height="31" stroke="#587ec1" style="stroke-linejoin:round;stroke-miterlimit:4;" fill="#587ec1" stroke-width="2"></rect><rect x="2" y="2" width="31" height="31" rx="16.5" ry="16.5" fill="#ffffff"></rect><path fill="rgba(222,222,222,0.66)" transform="translate(10 10)" d="M9,0.5l-2,1v3.7734L2,8v6h4v-4h3
	v4h4V8L8,5.2734V4l1-0.5l2,1l2-1v-3l-2,1L9,0.5z" style="stroke-linejoin:round;stroke-miterlimit:4;" stroke="rgba(222,222,222,0.66)" stroke-width="2"></path><path fill="#587ec1" transform="translate(10 10)" d="M9,0.5l-2,1v3.7734L2,8v6h4v-4h3
	v4h4V8L8,5.2734V4l1-0.5l2,1l2-1v-3l-2,1L9,0.5z"></path></svg>