<svg xmlns="http://www.w3.org/2000/svg" viewBox="0 0 31 31" height="31" width="31"><title>religious-muslim-11.svg</title><rect fill="none" x="0" y="0" width="31" height="31"></rect><rect x="2" y="2" rx="14.5" ry="14.5" width="27" height="27" stroke="#587ec1" style="stroke-linejoin:round;stroke-miterlimit:4;" fill="#587ec1" stroke-width="2"></rect><rect x="2" y="2" width="27" height="27" rx="14.5" ry="14.5" fill="#ffffff"></rect><path fill="rgba(222,222,222,0.66)" transform="translate(10 10)" d="M4.9,0C2.2,0,0,2.2,0,4.9
	s2.2,4.9,4.9,4.9c0.9,0,1.7-0.2,2.4-0.6H6.7c-2.4,0-4.3-1.9-4.3-4.3s1.9-4.3,4.3-4.3h0.6C6.5,0.2,5.8,0,4.9,0z M8.5,2L7.6845,3.7
	L6,4l1,1.5L6.5,7l2-1l2,1L10,5.5L11,4L9.5,3.7L8.5,2z" style="stroke-linejoin:round;stroke-miterlimit:4;" stroke="rgba(222,222,222,0.66)" stroke-width="2"></path><path fill="#587ec1" transform="translate(10 10)" d="M4.9,0C2.2,0,0,2.2,0,4.9
	s2.2,4.9,4.9,4.9c0.9,0,1.7-0.2,2.4-0.6H6.7c-2.4,0-4.3-1.9-4.3-4.3s1.9-4.3,4.3-4.3h0.6C6.5,0.2,5.8,0,4.9,0z M8.5,2L7.6845,3.7
	L6,4l1,1.5L6.5,7l2-1l2,1L10,5.5L11,4L9.5,3.7L8.5,2z"></path></svg>