<svg xmlns="http://www.w3.org/2000/svg" viewBox="0 0 35 35" height="35" width="35"><title>religious-christian-15.svg</title><rect fill="none" x="0" y="0" width="35" height="35"></rect><rect x="2" y="2" rx="16.5" ry="16.5" width="31" height="31" stroke="#587ec1" style="stroke-linejoin:round;stroke-miterlimit:4;" fill="#587ec1" stroke-width="2"></rect><rect x="2" y="2" width="31" height="31" rx="16.5" ry="16.5" fill="#ffffff"></rect><path fill="rgba(222,222,222,0.66)" transform="translate(10 10)" d="M6,0.9552V4H3v3h3v8h3V7h3V4H9V1
	c0-1-0.9776-1-0.9776-1H6.9887C6.9887,0,6,0,6,0.9552z" style="stroke-linejoin:round;stroke-miterlimit:4;" stroke="rgba(222,222,222,0.66)" stroke-width="2"></path><path fill="#587ec1" transform="translate(10 10)" d="M6,0.9552V4H3v3h3v8h3V7h3V4H9V1
	c0-1-0.9776-1-0.9776-1H6.9887C6.9887,0,6,0,6,0.9552z"></path></svg>