<svg xmlns="http://www.w3.org/2000/svg" viewBox="0 0 31 31" height="31" width="31"><title>rocket-11.svg</title><rect fill="none" x="0" y="0" width="31" height="31"></rect><rect x="2" y="2" rx="14.5" ry="14.5" width="27" height="27" stroke="#587ec1" style="stroke-linejoin:round;stroke-miterlimit:4;" fill="#587ec1" stroke-width="2"></rect><rect x="2" y="2" width="27" height="27" rx="14.5" ry="14.5" fill="#ffffff"></rect><path fill="rgba(222,222,222,0.66)" transform="translate(10 10)" d="M9,1C7.488,1,5.4077,2.1459,4.0488,4H3C2.1988,4,1.8162,4.3675,1.5,5L1,6h1h1l1,1l1,1v1v1l1-0.5
	C6.6325,9.1838,7,8.8012,7,8V6.9512C8.8541,5.5923,10,3.512,10,2V1H9z M7.5,3C7.7761,3,8,3.2239,8,3.5S7.7761,4,7.5,4
	S7,3.7761,7,3.5S7.2239,3,7.5,3z M2.75,7.25L2.5,7.5C2,8,2,9,2,9s0.9448,0.0552,1.5-0.5l0.25-0.25L2.75,7.25z" style="stroke-linejoin:round;stroke-miterlimit:4;" stroke="rgba(222,222,222,0.66)" stroke-width="2"></path><path fill="#587ec1" transform="translate(10 10)" d="M9,1C7.488,1,5.4077,2.1459,4.0488,4H3C2.1988,4,1.8162,4.3675,1.5,5L1,6h1h1l1,1l1,1v1v1l1-0.5
	C6.6325,9.1838,7,8.8012,7,8V6.9512C8.8541,5.5923,10,3.512,10,2V1H9z M7.5,3C7.7761,3,8,3.2239,8,3.5S7.7761,4,7.5,4
	S7,3.7761,7,3.5S7.2239,3,7.5,3z M2.75,7.25L2.5,7.5C2,8,2,9,2,9s0.9448,0.0552,1.5-0.5l0.25-0.25L2.75,7.25z"></path></svg>