<svg xmlns="http://www.w3.org/2000/svg" viewBox="0 0 31 31" height="31" width="31"><title>snowmobile-11.svg</title><rect fill="none" x="0" y="0" width="31" height="31"></rect><rect x="2" y="2" rx="14.5" ry="14.5" width="27" height="27" stroke="#587ec1" style="stroke-linejoin:round;stroke-miterlimit:4;" fill="#587ec1" stroke-width="2"></rect><rect x="2" y="2" width="27" height="27" rx="14.5" ry="14.5" fill="#ffffff"></rect><path fill="rgba(222,222,222,0.66)" transform="translate(10 10)" d="M4,8.5a.5.5,0,0,1-.5.5H.5a.5.5,0,0,1,0-1h3A.5.5,0,0,1,4,8.5Zm7-3a.5.5,0,0,0-.5-.5.9289.9289,0,0,0-.0969.0094L6,6H5.5A.5.5,0,0,1,5,5.5v-3a.5.5,0,0,0-.9314-.2528L3,4,.3118,5.038A.4989.4989,0,0,0,0,5.5a.5209.5209,0,0,0,.0864.2809L1,7l2.4113.0007a.4876.4876,0,0,1,.314.1149L5.7234,8.7709A.9964.9964,0,0,0,6.3591,9H9.4949a.5045.5045,0,0,0,.4512-.73L9,7l1.7792-1.0852A.5033.5033,0,0,0,11,5.5Z" style="stroke-linejoin:round;stroke-miterlimit:4;" stroke="rgba(222,222,222,0.66)" stroke-width="2"></path><path fill="#587ec1" transform="translate(10 10)" d="M4,8.5a.5.5,0,0,1-.5.5H.5a.5.5,0,0,1,0-1h3A.5.5,0,0,1,4,8.5Zm7-3a.5.5,0,0,0-.5-.5.9289.9289,0,0,0-.0969.0094L6,6H5.5A.5.5,0,0,1,5,5.5v-3a.5.5,0,0,0-.9314-.2528L3,4,.3118,5.038A.4989.4989,0,0,0,0,5.5a.5209.5209,0,0,0,.0864.2809L1,7l2.4113.0007a.4876.4876,0,0,1,.314.1149L5.7234,8.7709A.9964.9964,0,0,0,6.3591,9H9.4949a.5045.5045,0,0,0,.4512-.73L9,7l1.7792-1.0852A.5033.5033,0,0,0,11,5.5Z"></path></svg>