<svg xmlns="http://www.w3.org/2000/svg" viewBox="0 0 31 31" height="31" width="31"><title>square-11.svg</title><rect fill="none" x="0" y="0" width="31" height="31"></rect><rect x="2" y="2" rx="14.5" ry="14.5" width="27" height="27" stroke="#587ec1" style="stroke-linejoin:round;stroke-miterlimit:4;" fill="#587ec1" stroke-width="2"></rect><rect x="2" y="2" width="27" height="27" rx="14.5" ry="14.5" fill="#ffffff"></rect><path fill="rgba(222,222,222,0.66)" transform="translate(10 10)" d="M9,10H2c-0.5523,0-1-0.4477-1-1V2c0-0.5523,0.4477-1,1-1h7c0.5523,0,1,0.4477,1,1v7C10,9.5523,9.5523,10,9,10z" style="stroke-linejoin:round;stroke-miterlimit:4;" stroke="rgba(222,222,222,0.66)" stroke-width="2"></path><path fill="#587ec1" transform="translate(10 10)" d="M9,10H2c-0.5523,0-1-0.4477-1-1V2c0-0.5523,0.4477-1,1-1h7c0.5523,0,1,0.4477,1,1v7C10,9.5523,9.5523,10,9,10z"></path></svg>