<svg xmlns="http://www.w3.org/2000/svg" viewBox="0 0 35 35" height="35" width="35"><title>square-stroked-15.svg</title><rect fill="none" x="0" y="0" width="35" height="35"></rect><rect x="2" y="2" rx="16.5" ry="16.5" width="31" height="31" stroke="#587ec1" style="stroke-linejoin:round;stroke-miterlimit:4;" fill="#587ec1" stroke-width="2"></rect><rect x="2" y="2" width="31" height="31" rx="16.5" ry="16.5" fill="#ffffff"></rect><path fill="rgba(222,222,222,0.66)" transform="translate(10 10)" d="M12.7,2.3v10.4H2.3V2.3H12.7 M13,1H2C1.4477,1,1,1.4477,1,2v11c0,0.5523,0.4477,1,1,1h11c0.5523,0,1-0.4477,1-1V2
	C14,1.4477,13.5523,1,13,1L13,1z" style="stroke-linejoin:round;stroke-miterlimit:4;" stroke="rgba(222,222,222,0.66)" stroke-width="2"></path><path fill="#587ec1" transform="translate(10 10)" d="M12.7,2.3v10.4H2.3V2.3H12.7 M13,1H2C1.4477,1,1,1.4477,1,2v11c0,0.5523,0.4477,1,1,1h11c0.5523,0,1-0.4477,1-1V2
	C14,1.4477,13.5523,1,13,1L13,1z"></path></svg>