<svg xmlns="http://www.w3.org/2000/svg" viewBox="0 0 31 31" height="31" width="31"><title>star-stroked-11.svg</title><rect fill="none" x="0" y="0" width="31" height="31"></rect><rect x="2" y="2" rx="14.5" ry="14.5" width="27" height="27" stroke="#587ec1" style="stroke-linejoin:round;stroke-miterlimit:4;" fill="#587ec1" stroke-width="2"></rect><rect x="2" y="2" width="27" height="27" rx="14.5" ry="14.5" fill="#ffffff"></rect><path fill="rgba(222,222,222,0.66)" transform="translate(10 10)" d="M5.5,2.69l0.59,1.47l0.25,0.63h1.81l-1,0.9l-0.5,0.44l0.18,0.63l0.56,1.69L6.07,7.53L5.5,7.12
	l-0.57,0.4L3.62,8.44l0.55-1.68l0.21-0.63L3.88,5.7l-1-0.9h1.78l0.25-0.63L5.5,2.69 M5.5,0L4,3.79H0.19l3,2.66L1.71,11L5.5,8.34
	L9.29,11L7.78,6.45l3-2.66H7L5.5,0L5.5,0z" style="stroke-linejoin:round;stroke-miterlimit:4;" stroke="rgba(222,222,222,0.66)" stroke-width="2"></path><path fill="#587ec1" transform="translate(10 10)" d="M5.5,2.69l0.59,1.47l0.25,0.63h1.81l-1,0.9l-0.5,0.44l0.18,0.63l0.56,1.69L6.07,7.53L5.5,7.12
	l-0.57,0.4L3.62,8.44l0.55-1.68l0.21-0.63L3.88,5.7l-1-0.9h1.78l0.25-0.63L5.5,2.69 M5.5,0L4,3.79H0.19l3,2.66L1.71,11L5.5,8.34
	L9.29,11L7.78,6.45l3-2.66H7L5.5,0L5.5,0z"></path></svg>