<svg xmlns="http://www.w3.org/2000/svg" viewBox="0 0 31 31" height="31" width="31"><title>suitcase-11.svg</title><rect fill="none" x="0" y="0" width="31" height="31"></rect><rect x="2" y="2" rx="14.5" ry="14.5" width="27" height="27" stroke="#587ec1" style="stroke-linejoin:round;stroke-miterlimit:4;" fill="#587ec1" stroke-width="2"></rect><rect x="2" y="2" width="27" height="27" rx="14.5" ry="14.5" fill="#ffffff"></rect><path fill="rgba(222,222,222,0.66)" transform="translate(10 10)" d="M8,3V1.578L7.3601,1H3.6399
	L3,1.7477V3H1.5L1,3.5v6L1.5,10h8L10,9.5v-6L9.5,3H8z M4,2h3v1H4V2z" style="stroke-linejoin:round;stroke-miterlimit:4;" stroke="rgba(222,222,222,0.66)" stroke-width="2"></path><path fill="#587ec1" transform="translate(10 10)" d="M8,3V1.578L7.3601,1H3.6399
	L3,1.7477V3H1.5L1,3.5v6L1.5,10h8L10,9.5v-6L9.5,3H8z M4,2h3v1H4V2z"></path></svg>