<svg xmlns="http://www.w3.org/2000/svg" viewBox="0 0 31 31" height="31" width="31"><title>telephone-11.svg</title><rect fill="none" x="0" y="0" width="31" height="31"></rect><rect x="2" y="2" rx="14.5" ry="14.5" width="27" height="27" stroke="#587ec1" style="stroke-linejoin:round;stroke-miterlimit:4;" fill="#587ec1" stroke-width="2"></rect><rect x="2" y="2" width="27" height="27" rx="14.5" ry="14.5" fill="#ffffff"></rect><path fill="rgba(222,222,222,0.66)" transform="translate(10 10)" d="M3,9.4a0.73,0.73,0,0,0,1,0l0.74-.74a0.73,0.73,0,0,0,0-1ZM7.56,4.8a0.73,0.73,0,0,0,1,0l0.71-.71a0.73,0.73,0,0,0,0-1ZM5.88,3.57L3.57,5.88a0.37,0.37,0,0,0,0,.52L4,6.84,2.26,8.6a2.27,2.27,0,0,1-.73-1.34v-1a1.3452,1.3452,0,0,1,.52-1L5.26,2.05a1.3452,1.3452,0,0,1,1-.52h1a2.27,2.27,0,0,1,1.34.73L6.84,4,6.4,3.57a0.37,0.37,0,0,0-.52,0" style="stroke-linejoin:round;stroke-miterlimit:4;" stroke="rgba(222,222,222,0.66)" stroke-width="2"></path><path fill="#587ec1" transform="translate(10 10)" d="M3,9.4a0.73,0.73,0,0,0,1,0l0.74-.74a0.73,0.73,0,0,0,0-1ZM7.56,4.8a0.73,0.73,0,0,0,1,0l0.71-.71a0.73,0.73,0,0,0,0-1ZM5.88,3.57L3.57,5.88a0.37,0.37,0,0,0,0,.52L4,6.84,2.26,8.6a2.27,2.27,0,0,1-.73-1.34v-1a1.3452,1.3452,0,0,1,.52-1L5.26,2.05a1.3452,1.3452,0,0,1,1-.52h1a2.27,2.27,0,0,1,1.34.73L6.84,4,6.4,3.57a0.37,0.37,0,0,0-.52,0"></path></svg>