<svg xmlns="http://www.w3.org/2000/svg" viewBox="0 0 35 35" height="35" width="35"><title>telephone-15.svg</title><rect fill="none" x="0" y="0" width="35" height="35"></rect><rect x="2" y="2" rx="16.5" ry="16.5" width="31" height="31" stroke="#587ec1" style="stroke-linejoin:round;stroke-miterlimit:4;" fill="#587ec1" stroke-width="2"></rect><rect x="2" y="2" width="31" height="31" rx="16.5" ry="16.5" fill="#ffffff"></rect><path fill="rgba(222,222,222,0.66)" transform="translate(10 10)" d="M4.51,8.88a0.51,0.51,0,0,0,0,.72l0.72,0.72L3.07,12.5,2.7,12.13A2.24,2.24,0,0,1,2,10.69V9.24a2.24,2.24,0,0,1,.7-1.45L7.77,2.72A2.24,2.24,0,0,1,9.22,2h1.45a2.24,2.24,0,0,1,1.45.72l0.36,0.36L10.31,5.26,9.58,4.53a0.51,0.51,0,0,0-.72,0ZM4.13,13.6a1,1,0,0,0,1.4137.0363Q5.5623,13.6186,5.58,13.6l0.72-.72a1,1,0,0,0,.0363-1.4137Q6.3186,11.4477,6.3,11.43Zm7.25-7.28a1,1,0,0,0,1.4137.0363C12.8061,6.3445,13.55,5.6,13.55,5.6a1,1,0,0,0,.0363-1.4137Q13.5686,4.1677,13.55,4.15Z" style="stroke-linejoin:round;stroke-miterlimit:4;" stroke="rgba(222,222,222,0.66)" stroke-width="2"></path><path fill="#587ec1" transform="translate(10 10)" d="M4.51,8.88a0.51,0.51,0,0,0,0,.72l0.72,0.72L3.07,12.5,2.7,12.13A2.24,2.24,0,0,1,2,10.69V9.24a2.24,2.24,0,0,1,.7-1.45L7.77,2.72A2.24,2.24,0,0,1,9.22,2h1.45a2.24,2.24,0,0,1,1.45.72l0.36,0.36L10.31,5.26,9.58,4.53a0.51,0.51,0,0,0-.72,0ZM4.13,13.6a1,1,0,0,0,1.4137.0363Q5.5623,13.6186,5.58,13.6l0.72-.72a1,1,0,0,0,.0363-1.4137Q6.3186,11.4477,6.3,11.43Zm7.25-7.28a1,1,0,0,0,1.4137.0363C12.8061,6.3445,13.55,5.6,13.55,5.6a1,1,0,0,0,.0363-1.4137Q13.5686,4.1677,13.55,4.15Z"></path></svg>