<svg xmlns="http://www.w3.org/2000/svg" viewBox="0 0 35 35" height="35" width="35"><title>triangle-stroked-15.svg</title><rect fill="none" x="0" y="0" width="35" height="35"></rect><rect x="2" y="2" rx="16.5" ry="16.5" width="31" height="31" stroke="#587ec1" style="stroke-linejoin:round;stroke-miterlimit:4;" fill="#587ec1" stroke-width="2"></rect><rect x="2" y="2" width="31" height="31" rx="16.5" ry="16.5" fill="#ffffff"></rect><path fill="rgba(222,222,222,0.66)" transform="translate(10 10)" d="M7.5243,1.5004
	C7.2429,1.4913,6.9787,1.6423,6.8336,1.8952l-5.5,9.8692C1.0218,12.3078,1.395,12.9999,2,13h11
	c0.605-0.0001,0.9782-0.6922,0.6664-1.2355l-5.5-9.8692C8.0302,1.6579,7.7884,1.5092,7.5243,1.5004z M7.5,3.8993l4.1267,7.4704
	H3.3733L7.5,3.8993z" style="stroke-linejoin:round;stroke-miterlimit:4;" stroke="rgba(222,222,222,0.66)" stroke-width="2"></path><path fill="#587ec1" transform="translate(10 10)" d="M7.5243,1.5004
	C7.2429,1.4913,6.9787,1.6423,6.8336,1.8952l-5.5,9.8692C1.0218,12.3078,1.395,12.9999,2,13h11
	c0.605-0.0001,0.9782-0.6922,0.6664-1.2355l-5.5-9.8692C8.0302,1.6579,7.7884,1.5092,7.5243,1.5004z M7.5,3.8993l4.1267,7.4704
	H3.3733L7.5,3.8993z"></path></svg>