<svg xmlns="http://www.w3.org/2000/svg" viewBox="0 0 31 31" height="31" width="31"><title>triangle-stroked-11.svg</title><rect fill="none" x="0" y="0" width="31" height="31"></rect><rect x="2" y="2" rx="14.5" ry="14.5" width="27" height="27" stroke="#587ec1" style="stroke-linejoin:round;stroke-miterlimit:4;" fill="#587ec1" stroke-width="2"></rect><rect x="2" y="2" width="27" height="27" rx="14.5" ry="14.5" fill="#ffffff"></rect><path fill="rgba(222,222,222,0.66)" transform="translate(10 10)" d="M5.5174,1.2315
	C5.3163,1.2253,5.1276,1.328,5.024,1.5l-4,6.6598C0.8013,8.5293,1.0679,8.9999,1.5,9h8c0.4321-0.0001,0.6987-0.4707,0.476-0.8402
	l-4-6.6598C5.8787,1.3386,5.706,1.2375,5.5174,1.2315z M5.5,2.8627l3.0191,5.0286H2.4809L5.5,2.8627z" style="stroke-linejoin:round;stroke-miterlimit:4;" stroke="rgba(222,222,222,0.66)" stroke-width="2"></path><path fill="#587ec1" transform="translate(10 10)" d="M5.5174,1.2315
	C5.3163,1.2253,5.1276,1.328,5.024,1.5l-4,6.6598C0.8013,8.5293,1.0679,8.9999,1.5,9h8c0.4321-0.0001,0.6987-0.4707,0.476-0.8402
	l-4-6.6598C5.8787,1.3386,5.706,1.2375,5.5174,1.2315z M5.5,2.8627l3.0191,5.0286H2.4809L5.5,2.8627z"></path></svg>