<svg xmlns="http://www.w3.org/2000/svg" viewBox="0 0 31 31" height="31" width="31"><title>warehouse-11.svg</title><rect fill="none" x="0" y="0" width="31" height="31"></rect><rect x="2" y="2" rx="14.5" ry="14.5" width="27" height="27" stroke="#587ec1" style="stroke-linejoin:round;stroke-miterlimit:4;" fill="#587ec1" stroke-width="2"></rect><rect x="2" y="2" width="27" height="27" rx="14.5" ry="14.5" fill="#ffffff"></rect><path fill="rgba(222,222,222,0.66)" transform="translate(10 10)" d="M3,11H0V8h3V11z M7,8H4v3h3V8z M11,8H8v3h3V8z M5,4H2v3h3V4z M9,4H6v3h3V4z M10.44,3.24
	c0.1349-0.2403,0.0499-0.5444-0.19-0.68l-4.5-2.5c-0.1521-0.0855-0.3379-0.0855-0.49,0l-4.5,2.5
	C0.5272,2.7085,0.4588,3.0176,0.6073,3.2504C0.7444,3.4654,1.0213,3.5428,1.25,3.43L5.5,1.07l4.26,2.37
	c0.2421,0.1328,0.546,0.0442,0.6789-0.1979C10.4392,3.2414,10.4396,3.2407,10.44,3.24z" style="stroke-linejoin:round;stroke-miterlimit:4;" stroke="rgba(222,222,222,0.66)" stroke-width="2"></path><path fill="#587ec1" transform="translate(10 10)" d="M3,11H0V8h3V11z M7,8H4v3h3V8z M11,8H8v3h3V8z M5,4H2v3h3V4z M9,4H6v3h3V4z M10.44,3.24
	c0.1349-0.2403,0.0499-0.5444-0.19-0.68l-4.5-2.5c-0.1521-0.0855-0.3379-0.0855-0.49,0l-4.5,2.5
	C0.5272,2.7085,0.4588,3.0176,0.6073,3.2504C0.7444,3.4654,1.0213,3.5428,1.25,3.43L5.5,1.07l4.26,2.37
	c0.2421,0.1328,0.546,0.0442,0.6789-0.1979C10.4392,3.2414,10.4396,3.2407,10.44,3.24z"></path></svg>