<svg xmlns="http://www.w3.org/2000/svg" viewBox="0 0 31 31" height="31" width="31"><title>waste-basket-11.svg</title><rect fill="none" x="0" y="0" width="31" height="31"></rect><rect x="2" y="2" rx="14.5" ry="14.5" width="27" height="27" stroke="#587ec1" style="stroke-linejoin:round;stroke-miterlimit:4;" fill="#587ec1" stroke-width="2"></rect><rect x="2" y="2" width="27" height="27" rx="14.5" ry="14.5" fill="#ffffff"></rect><path fill="rgba(222,222,222,0.66)" transform="translate(10 10)" d="M9,4l-1.17,7H3.17L2,4H9z M9.25,2.25C9.25,2.3881,9.1381,2.5,9,2.5H2c-0.1381,0-0.25-0.1119-0.25-0.25S1.8619,2,2,2h2V0h3
	v0.5l0,0V2h2C9.1381,2,9.25,2.1119,9.25,2.25z M6.5,2V0.5h-2V2H6.5z" style="stroke-linejoin:round;stroke-miterlimit:4;" stroke="rgba(222,222,222,0.66)" stroke-width="2"></path><path fill="#587ec1" transform="translate(10 10)" d="M9,4l-1.17,7H3.17L2,4H9z M9.25,2.25C9.25,2.3881,9.1381,2.5,9,2.5H2c-0.1381,0-0.25-0.1119-0.25-0.25S1.8619,2,2,2h2V0h3
	v0.5l0,0V2h2C9.1381,2,9.25,2.1119,9.25,2.25z M6.5,2V0.5h-2V2H6.5z"></path></svg>