<svg xmlns="http://www.w3.org/2000/svg" viewBox="0 0 31 31" height="31" width="31"><title>water-11.svg</title><rect fill="none" x="0" y="0" width="31" height="31"></rect><rect x="2" y="2" rx="14.5" ry="14.5" width="27" height="27" stroke="#587ec1" style="stroke-linejoin:round;stroke-miterlimit:4;" fill="#587ec1" stroke-width="2"></rect><rect x="2" y="2" width="27" height="27" rx="14.5" ry="14.5" fill="#ffffff"></rect><path fill="rgba(222,222,222,0.66)" transform="translate(10 10)" d="M5.5,11C3.59,11,2,9,2,7s2.61-5.81,3.5-7C6.39,1.19,9,5,9,7S7.41,11,5.5,11z" style="stroke-linejoin:round;stroke-miterlimit:4;" stroke="rgba(222,222,222,0.66)" stroke-width="2"></path><path fill="#587ec1" transform="translate(10 10)" d="M5.5,11C3.59,11,2,9,2,7s2.61-5.81,3.5-7C6.39,1.19,9,5,9,7S7.41,11,5.5,11z"></path></svg>