<svg xmlns="http://www.w3.org/2000/svg" viewBox="0 0 35 35" height="35" width="35"><title>water-15.svg</title><rect fill="none" x="0" y="0" width="35" height="35"></rect><rect x="2" y="2" rx="16.5" ry="16.5" width="31" height="31" stroke="#587ec1" style="stroke-linejoin:round;stroke-miterlimit:4;" fill="#587ec1" stroke-width="2"></rect><rect x="2" y="2" width="31" height="31" rx="16.5" ry="16.5" fill="#ffffff"></rect><path fill="rgba(222,222,222,0.66)" transform="translate(10 10)" d="M7.49,15C4.5288,14.827,2.1676,12.4615,2,9.5C2,6.6,6.25,1.66,7.49,0c1.24,1.66,5,6.59,5,9.49S10.17,15,7.49,15z" style="stroke-linejoin:round;stroke-miterlimit:4;" stroke="rgba(222,222,222,0.66)" stroke-width="2"></path><path fill="#587ec1" transform="translate(10 10)" d="M7.49,15C4.5288,14.827,2.1676,12.4615,2,9.5C2,6.6,6.25,1.66,7.49,0c1.24,1.66,5,6.59,5,9.49S10.17,15,7.49,15z"></path></svg>